IKResults
version=1
nRows=14
nColumns=40
inDegrees=yes

Units are S.I. units (second, meters, Newtons, ...)
Angles are in degrees.

endheader
time	pelvis_tilt	pelvis_list	pelvis_rotation	pelvis_tx	pelvis_ty	pelvis_tz	hip_flexion_r	hip_adduction_r	hip_rotation_r	knee_angle_r	knee_angle_r_beta	ankle_angle_r	subtalar_angle_r	mtp_angle_r	hip_flexion_l	hip_adduction_l	hip_rotation_l	knee_angle_l	knee_angle_l_beta	ankle_angle_l	subtalar_angle_l	mtp_angle_l	lumbar_extension	lumbar_bending	lumbar_rotation	arm_flex_r	arm_add_r	arm_rot_r	elbow_flex_r	pro_sup_r	wrist_flex_r	wrist_dev_r	arm_flex_l	arm_add_l	arm_rot_l	elbow_flex_l	pro_sup_l	wrist_flex_l	wrist_dev_l
      1.53000000	     19.92730047	     -3.62405432	      4.24881066	      0.34253036	      0.95899865	     -1.44404312	    -14.66696442	      6.44208661	    -12.62210220	    -15.08523568	     -0.26328703	      6.72180626	     -3.31618949	     -4.87432630	     -7.67948795	      4.05849456	     -3.12804812	    -64.80413944	     -1.13104560	      0.46861049	     15.81610777	     -4.67023031	    -23.37546569	      4.44301606	     -2.62893372	     -0.79625923	     -9.31519284	      0.53719483	     20.77621855	     89.95437384	      0.00000000	      0.00000000	      5.47094713	      6.71753340	      9.89182421	     27.44638828	     89.95437384	      0.00000000	      0.00000000
      1.54000000	     19.73443776	     -3.41576158	      3.90235332	      0.35209285	      0.95952946	     -1.44293604	    -15.28463319	      6.17803399	    -12.88011536	    -14.83369246	     -0.25889677	      7.15629344	     -3.15381871	     -4.86140301	     -6.18355906	      3.93431510	     -2.70421626	    -64.74567150	     -1.13002514	      0.94891630	     15.71963426	     -4.49738431	    -23.29154112	      3.95920597	     -2.31279043	      0.11173873	     -9.30097929	      0.70974994	     21.50764304	     89.95437384	      0.00000000	      0.00000000	      4.79144060	      6.73949406	      9.94127103	     26.25684536	     89.95437384	      0.00000000	      0.00000000
      1.55000000	     19.52921322	     -3.15400905	      3.58218489	      0.36155004	      0.96005225	     -1.44221850	    -16.00744212	      5.91656801	    -12.24210029	    -14.37166757	     -0.25083292	      7.60340336	     -2.51895751	     -4.96366705	     -4.81167227	      3.46890510	     -2.72365593	    -64.34086314	     -1.12295991	      1.87277408	     16.09712747	     -4.20047095	    -23.18654753	      3.47402468	     -1.98157810	      0.89005606	     -9.43404864	      1.02866765	     22.53392260	     89.95437384	      0.00000000	      0.00000000	      4.47171344	      6.66601529	     10.19692010	     24.36035941	     89.95437384	      0.00000000	      0.00000000
      1.56000000	     19.34088671	     -2.85535762	      3.16551616	      0.37103960	      0.96038612	     -1.44138658	    -16.63710538	      5.56836688	    -11.85443325	    -14.09120115	     -0.24593786	      8.15366864	     -2.21486265	     -5.06720213	     -3.51147553	      3.05321698	     -2.44752215	    -63.71845621	     -1.11209686	      2.59182498	     16.40876456	     -3.85445464	    -23.09668965	      2.90755729	     -1.58636458	      1.63021135	     -9.57426108	      1.40555052	     23.64780409	     89.95437384	      0.00000000	      0.00000000	      4.01940460	      6.62004078	     10.46076983	     22.78156695	     89.95437384	      0.00000000	      0.00000000
      1.57000000	     19.02211194	     -2.68637953	      2.89357118	      0.38058855	      0.96033201	     -1.44036024	    -16.95785864	      5.35229903	    -11.99882777	    -14.12072082	     -0.24645307	      8.55338245	     -2.21838423	     -5.04358274	     -2.02261507	      3.06227236	     -1.93576203	    -62.93924188	     -1.09849700	      3.01466212	     16.19304450	     -3.64888743	    -22.84272445	      2.48083635	     -1.43824162	      2.47056389	     -9.56843273	      1.52669701	     24.63931737	     89.95437384	      0.00000000	      0.00000000	      3.16297309	      6.74760956	     10.44259309	     21.84912671	     89.95437384	      0.00000000	      0.00000000
      1.58000000	     18.97717403	     -2.23517397	      2.21474071	      0.39014697	      0.96070829	     -1.43954952	    -17.74737479	      4.76881303	    -11.10498701	    -13.87236153	     -0.24211838	      9.17469451	     -2.00335527	     -5.26165474	     -1.17359826	      2.38499600	     -1.50583612	    -61.67212254	     -1.07638160	      4.07326719	     16.74943619	     -3.08259951	    -22.90306757	      1.70600917	     -0.73487928	      2.94316854	     -9.90836296	      2.08868252	     26.26082064	     89.95437384	      0.00000000	      0.00000000	      2.87432947	      6.66772007	     10.72152811	     20.08391943	     89.95437384	      0.00000000	      0.00000000
      1.59000000	     18.66608854	     -2.07823569	      2.02086508	      0.39968890	      0.96031505	     -1.43881400	    -18.09404814	      4.59827097	    -11.17480031	    -13.86322857	     -0.24195898	      9.68141286	     -2.11810294	     -5.28061806	      0.18857931	      2.40968050	     -0.99468478	    -60.48939704	     -1.05573914	      4.67593860	     16.74892786	     -2.82960407	    -22.64250103	      1.34888419	     -0.57296086	      3.69741910	     -9.98425624	      2.25034457	     27.34374314	     89.95437384	      0.00000000	      0.00000000	      2.08279767	      6.79005633	     10.68020711	     19.19867487	     89.95437384	      0.00000000	      0.00000000
      1.60000000	     18.45516837	     -1.73277316	      1.56910375	      0.40917652	      0.95998949	     -1.43813915	    -18.54764517	      4.19299125	    -10.59200182	    -13.79156229	     -0.24070817	     10.26804821	     -2.18528480	     -5.41415799	      1.18593073	      2.05522448	     -0.43006919	    -58.87775524	     -1.02761069	      5.85105969	     17.07424013	     -2.38251796	    -22.51447120	      0.75084631	     -0.15417140	      4.12397354	    -10.27539738	      2.59220765	     29.10921826	     89.95437384	      0.00000000	      0.00000000	      1.50280583	      6.85086129	     10.63647840	     18.00837329	     89.95437384	      0.00000000	      0.00000000
      1.61000000	     18.66363632	     -1.23605922	      0.91692223	      0.41917586	      0.96031216	     -1.43733489	    -19.49897183	      3.54371215	     -9.92959353	    -13.73055547	     -0.23964340	     10.71022878	     -2.45470684	     -5.60623666	      1.47170135	      1.59887923	      0.42227212	    -56.76539664	     -0.99074307	      6.23185197	     17.42617512	     -1.55461244	    -22.79157565	     -0.05631101	      0.43129809	      4.51864915	    -10.58273863	      2.87859981	     30.84462260	     89.95437384	      0.00000000	      0.00000000	      0.77444252	      6.94526766	     10.53016675	     17.17011878	     89.95437384	      0.00000000	      0.00000000
      1.62000000	     18.52878019	     -0.96323876	      0.52550317	      0.42875974	      0.95978653	     -1.43668059	    -19.97125904	      3.20613348	     -9.42153328	    -13.78947623	     -0.24067176	     11.03121583	     -2.92938307	     -5.75695782	      2.23661612	      1.48957425	      1.21659823	    -54.70779022	     -0.95483107	      6.72854983	     17.55399362	     -0.61761854	    -22.73117142	     -0.55335058	      0.77303227	      5.00557575	    -10.79905891	      2.95116322	     32.45468713	     89.95437384	      0.00000000	      0.00000000	     -0.10678377	      7.07276638	     10.23704397	     16.63177306	     89.95437384	      0.00000000	      0.00000000
      1.63000000	     18.57311991	     -0.60053984	      0.09262355	      0.43885328	      0.95947724	     -1.43605608	    -20.77040650	      2.80261319	     -8.61007868	    -13.61252663	     -0.23758341	     11.02508265	     -3.94526512	     -7.68756920	      2.60526431	      1.22114861	      2.01851691	    -52.39363113	     -0.91444137	      7.76511485	     17.30028078	      7.97182512	    -22.78754861	     -1.15403686	      1.12505383	      5.43542032	    -10.96931197	      2.89497115	     33.98245869	     89.95437384	      0.00000000	      0.00000000	     -1.11461940	      7.25019679	      9.82589114	     16.29473070	     89.95437384	      0.00000000	      0.00000000
      1.64000000	     18.47687462	     -0.29056190	     -0.26123381	      0.44879024	      0.95874212	     -1.43557941	    -21.22428024	      2.40488147	     -8.13251158	    -13.81220676	     -0.24106849	     11.41992728	     -4.31446197	     -7.62526774	      3.09794893	      1.08862970	      2.87346752	    -49.87552569	     -0.87049214	      8.22286086	     17.44469518	      8.07326065	    -22.71023524	     -1.66662104	      1.46974857	      5.75474175	    -11.21931501	      2.89657863	     35.65519439	     89.95437384	      0.00000000	      0.00000000	     -2.07235837	      7.42071362	      9.11423909	     15.85383885	     89.95437384	      0.00000000	      0.00000000
      1.65000000	     18.29210731	     -0.01483598	     -0.58088972	      0.45872787	      0.95773619	     -1.43524938	    -21.54630314	      2.05941065	     -7.64546991	    -14.05857281	     -0.24536838	     11.89073227	     -4.77443530	     -7.52646597	      3.63443391	      0.98764539	      3.75443720	    -47.23636035	     -0.82443001	      8.79622978	     17.50285994	      8.17339225	    -22.53796163	     -2.11432406	      1.76307691	      6.07045323	    -11.47339473	      2.91661654	     37.26934550	     89.95437384	      0.00000000	      0.00000000	     -3.02714489	      7.56236493	      8.71126616	     15.51979299	     89.95437384	      0.00000000	      0.00000000
      1.66000000	     17.65005614	     -0.10460072	     -0.18104183	      0.46791567	      0.95577839	     -1.43540678	    -21.24683145	      2.33279725	     -7.76188378	    -14.46199328	     -0.25240940	     12.04398792	     -4.79887619	     -7.39241158	      5.10582841	      1.46808589	      4.37716624	    -45.14539218	     -0.78793574	      8.97527829	     17.17453334	      8.07680448	    -21.98683905	     -1.98183995	      1.33681937	      6.69176480	    -11.49618967	      2.81099638	     38.47106338	     89.95437384	      0.00000000	      0.00000000	     -4.02860377	      7.73052129	      8.59344973	     15.30568552	     89.95437384	      0.00000000	      0.00000000
